<?xml version="1.0" encoding="UTF-8" standalone="no"?>
<!--Generator: Adobe Illustrator 21.0.0, SVG Export Plug-In . SVG Version: 6.00 Build 0)-->

<svg
   xmlns:d="https://loading.io/stock/"
   xmlns:dc="http://purl.org/dc/elements/1.1/"
   xmlns:cc="http://creativecommons.org/ns#"
   xmlns:rdf="http://www.w3.org/1999/02/22-rdf-syntax-ns#"
   xmlns:svg="http://www.w3.org/2000/svg"
   xmlns="http://www.w3.org/2000/svg"
   xmlns:xlink="http://www.w3.org/1999/xlink"
   xmlns:sodipodi="http://sodipodi.sourceforge.net/DTD/sodipodi-0.dtd"
   xmlns:inkscape="http://www.inkscape.org/namespaces/inkscape"
   version="1.1"
   id="圖層_1"
   x="0px"
   y="0px"
   viewBox="0 0 600 600"
   xml:space="preserve"
   sodipodi:docname="logo.svg"
   inkscape:version="0.92.2 (5c3e80d, 2017-08-06)"
   width="600"
   height="600"><defs
     id="defs9"><linearGradient
       inkscape:collect="always"
       id="linearGradient4512"><stop
         style="stop-color:#0041ff;stop-opacity:1"
         offset="0"
         id="stop4508" /><stop
         style="stop-color:#00c383;stop-opacity:0.88235295"
         offset="1"
         id="stop4510" /></linearGradient><linearGradient
       inkscape:collect="always"
       xlink:href="#linearGradient4512"
       id="linearGradient4514"
       x1="10.169492"
       y1="10.593221"
       x2="89.830505"
       y2="90.677963"
       gradientUnits="userSpaceOnUse"
       gradientTransform="matrix(7.4999063,0,0,7.5000938,-74.991563,-75.00094)" /></defs><sodipodi:namedview
     pagecolor="#ffffff"
     bordercolor="#666666"
     borderopacity="1"
     objecttolerance="10"
     gridtolerance="10"
     guidetolerance="10"
     inkscape:pageopacity="0"
     inkscape:pageshadow="2"
     inkscape:window-width="1920"
     inkscape:window-height="1057"
     id="namedview7"
     showgrid="false"
     inkscape:zoom="1.18"
     inkscape:cx="154.16046"
     inkscape:cy="259.64921"
     inkscape:window-x="1912"
     inkscape:window-y="-8"
     inkscape:window-maximized="1"
     inkscape:current-layer="圖層_1" /><path
     style="fill:url(#linearGradient4514);fill-opacity:1;stroke-width:7.5"
     d="m 517.21603,260.10325 c 29.94713,16.95021 57.64428,36.90046 82.78397,59.37074 -8.96239,-92.76866 -74.14407,-174.57968 -169.46788,-200.1175 -1.74748,-0.465 -3.49496,-0.75001 -5.23494,-1.17751 33.19459,-9.19512 66.91417,-14.65519 100.60375,-16.54521 C 453.96933,42.37553 350.02812,30.62288 264.56669,79.966 c -1.55248,0.89251 -2.96996,1.92752 -4.49244,2.85004 C 277.03904,52.86066 296.98879,25.14781 319.47351,0 226.71467,8.96261 144.89819,74.14593 119.36101,169.47212 c -0.435,1.62752 -0.79499,3.25504 -1.19999,4.88256 -9.14238,-33.08291 -14.63981,-66.67583 -16.52229,-100.25375 -59.25676,71.9334 -71.009113,175.87719 -21.67473,261.34076 0.877489,1.52252 1.889977,2.91754 2.804965,4.41756 C 52.83684,322.90904 25.124686,302.99629 0,280.53351 c 8.962388,92.76866 74.144073,174.57968 169.46788,200.1175 1.72498,0.465 3.44996,0.74251 5.17494,1.16251 -33.17209,9.18012 -66.87667,14.67019 -100.543746,16.55271 71.931596,59.25824 175.872806,71.01089 261.334236,21.66777 1.55998,-0.90001 2.99246,-1.92752 4.52244,-2.85754 -16.97229,29.96288 -36.95204,57.66823 -59.42926,82.82354 92.75884,-8.96261 174.57532,-74.15343 200.1125,-169.47212 0.4575,-1.71002 0.74999,-3.42754 1.16249,-5.13756 9.18738,33.16541 14.66981,66.85583 16.55229,100.51625 59.25676,-71.93339 71.00911,-175.87719 21.67473,-261.34076 -0.88499,-1.53752 -1.88998,-2.94754 -2.81247,-4.46256 z m -311.5386,39.9005 c 0,-53.16066 43.09446,-96.2562 96.2538,-96.2562 53.15933,0 96.24629,43.09554 96.24629,96.2562 0,53.16066 -43.09446,96.2562 -96.25379,96.2562 -53.15934,0 -96.2463,-43.09554 -96.2463,-96.2562 z"
     id="path2"
     inkscape:connector-curvature="0" /><metadata
     id="metadata4"><d:name>typhoon</d:name><d:tags>typhoon,hurricane,wheel,whirl,tornado,vortex,spiral,saw,disk,rotate</d:tags><d:license>cc-by</d:license><d:slug>wi6h7a</d:slug><rdf:RDF><cc:Work
         rdf:about=""><dc:format>image/svg+xml</dc:format><dc:type
           rdf:resource="http://purl.org/dc/dcmitype/StillImage" /></cc:Work></rdf:RDF></metadata></svg>